<svg xmlns="http://www.w3.org/2000/svg" xmlns:xlink="http://www.w3.org/1999/xlink" fill="none" version="1.1" width="300.0009765625" height="338.77880859375" viewBox="0 0 300.0009765625 338.77880859375"><defs><linearGradient x1="0.5" y1="1" x2="0.5" y2="0" id="master_svg0_2_2570"><stop offset="0%" stop-color="#FB7310" stop-opacity="1"/><stop offset="100%" stop-color="#F9A41E" stop-opacity="1"/></linearGradient><linearGradient x1="0.364420086145401" y1="0.55732661485672" x2="0.0812022006361471" y2="0.7615551386892011" id="master_svg1_2_4793"><stop offset="0%" stop-color="#0C53A3" stop-opacity="1"/><stop offset="100%" stop-color="#1478C6" stop-opacity="1"/></linearGradient><linearGradient x1="0" y1="0.6924659013748169" x2="0.1747933796161607" y2="0.005227205410459679" id="master_svg2_2_2540"><stop offset="7.857143133878708%" stop-color="#F35C02" stop-opacity="1"/><stop offset="100%" stop-color="#FCAF2A" stop-opacity="1"/></linearGradient><radialGradient cx="0" cy="0" r="1" gradientUnits="userSpaceOnUse" id="master_svg3_2_4196" gradientTransform="translate(150.0003433227539 85.88788414028386) rotate(55.01720451575699) scale(104.82756394177947 183.07815050894664)"><stop offset="0%" stop-color="#FBFDFF" stop-opacity="1"/><stop offset="10.34838780760765%" stop-color="#7ACCF4" stop-opacity="1"/><stop offset="50.059837102890015%" stop-color="#4CB8EC" stop-opacity="1"/><stop offset="61.096447706222534%" stop-color="#90BDC3" stop-opacity="1"/><stop offset="91.9823706150055%" stop-color="#FA921A" stop-opacity="1"/><stop offset="99.99998807907104%" stop-color="#F2FBFE" stop-opacity="1"/></radialGradient></defs><g><g><path d="M256.6080335888672,110.03221939404297L135.90426858886718,42.20851516723297L111.7706279754642,85.15841339404297L208.42800158886718,139.47040539404298L256.6080335888672,110.03221939404297Z" fill-rule="evenodd" fill="#0A0B10" fill-opacity="1"/></g><g><path d="M84.80194854736328,173.28770932128907L149.20331554736327,136.85320232128907L149.20331554736327,51.18067932128906L84.80194854736328,87.61518132128907L84.80194854736328,173.28770932128907Z" fill="#151821" fill-opacity="1"/></g><g><path d="M148.98425322311402,171.4080356616211L29.612602223114013,101.92305946350109L7.188872814178014,140.4458846616211L148.98425322311402,222.9834806616211L148.98425322311402,171.4080356616211Z" fill-rule="evenodd" fill="#0C0B11" fill-opacity="1"/></g><g transform="matrix(0.8656275272369385,-0.5006885528564453,0,1,20.043342990109522,74.68398988101399)"><path d="M149.16256713867188,171.4543760938375L149.16256713867188,222.9837606484375L200.46008313867188,223.1079136484375L200.46008313867188,171.5785201784375L149.16256713867188,171.4543760938375Z" fill="url(#master_svg0_2_2570)" fill-opacity="1"/></g><g><path d="M44.199762344360316,226.65943927246093L153.60605332519532,289.7672692724609L153.60605332519532,245.08033027246094L44.199762344360316,181.97249135596093L44.199762344360316,226.65943927246093Z" fill-rule="evenodd" fill="#1A1C28" fill-opacity="1"/></g><g><path d="M44.473532859140626,162.04769897460938L44.19980621337862,162.04769897460938L44.19980621337862,219.56170697460936L92.29268661914062,219.56170697460936L92.29268661914062,189.88272297460938L44.473532859140626,162.04769897460938L44.473532859140626,162.04769897460938Z" fill-rule="evenodd" fill="#1B1D29" fill-opacity="1"/></g><g><path d="M207.28020480371094,138.6540338696289L255.37309380371096,110.6596699559889L255.37309380371096,150.1202168696289L255.34026380371094,150.1202168696289L255.34026380371094,226.5865888696289L150.00882720947294,287.8988988696289L150.00882720947294,243.1097288696289L207.28020480371094,209.7726588696289L207.28020480371094,138.6540338696289Z" fill-rule="evenodd" fill="#131116" fill-opacity="1"/></g><g><path d="M0.026462100446169524,251.65580057373046L0.026462100446169524,84.83737222949047L44.60034730174017,110.78335957373046L44.60034730174017,226.00300057373047L149.97040030174017,287.22681057373046L149.97040030174017,338.7786505737305L0.026462100446169524,251.65580057373046Z" fill-rule="evenodd" fill="url(#master_svg1_2_4793)" fill-opacity="1"/></g><g transform="matrix(-1,0,0,1,599.8294677734375,0)"><path d="M299.91465568542475,251.65563863769532L299.91465568542475,84.83721201220531L344.48854088671874,110.7831996376953L344.48854088671874,226.0028386376953L449.8585938867187,287.2266586376953L449.8585938867187,338.7784886376953L299.91465568542475,251.65563863769532Z" fill-rule="evenodd" fill="url(#master_svg2_2_2540)" fill-opacity="1"/></g><g><path d="M255.12080711181642,110.70521016323308L149.2464071118164,51.20805216323308L89.3557891118164,85.29226516323308L193.8201371118164,146.09396016323308L149.3339771118164,171.77572016323307L0.00012588500640625,84.85848816323308L149.10773711181642,0.00019454983007761924L300.00086711181643,84.79606416323308L255.12080711181642,110.70521016323308Z" fill-rule="evenodd" fill="url(#master_svg3_2_4196)" fill-opacity="1"/></g></g></svg>